<svg width="800" height="600" xmlns="http://www.w3.org/2000/svg">
 <g id="Layer_1">
  <title>Layer 1</title>
  <path fill="#b2b2b2" d="m360.33332,440l-79,0l0,-180l79,0l0,180z" id="t_1" stroke="#000" transform="rotate(90 320.833 350)"/>
  <path fill="#b2b2b2" d="m230.33332,390l-79,0l0,-180l79,0l0,180z" id="t_2" stroke="#000"/>
  <path fill="#b2b2b2" d="m441.66665,420.66667l-79,0l0,-180l79,0l0,180z" id="t_3" stroke="#000" transform="rotate(90 402.166 249.334)"/>
  <path fill="#b2b2b2" d="m622.3333,420.66667l-79,0l0,-180l79,0l0,180z" id="t_4" stroke="#000" transform="rotate(90 582.835 249.334)"/>
  <path fill="#b2b2b2" d="m541.00001,440l-79,0l0,-180l79,0l0,180z" id="t_5" stroke="#000" transform="rotate(90 501.499 350)"/>
 </g>
</svg>